<?xml version="1.0" standalone="no"?>
<!DOCTYPE svg PUBLIC "-//W3C//DTD SVG 20010904//EN"
 "http://www.w3.org/TR/2001/REC-SVG-20010904/DTD/svg10.dtd">
<svg version="1.0" xmlns="http://www.w3.org/2000/svg"
 width="1920.000000pt" height="1290.000000pt" viewBox="0 0 1920.000000 1290.000000"
 preserveAspectRatio="xMidYMid meet">

<g transform="translate(0.000000,1290.000000) scale(0.100000,-0.100000)"
fill="#000000" stroke="none">
<path d="M10488 12388 l-3 -513 -587 -3 -588 -2 0 -285 0 -284 143 -3 142 -3
-2 -25 c-8 -73 -274 -2219 -278 -2237 -5 -23 -5 -23 -225 -23 l-220 0 2 -302
3 -303 183 -3 c168 -2 183 -4 178 -20 -2 -9 -42 -321 -88 -692 l-83 -674 -5
169 -5 170 -737 3 -738 2 0 780 0 780 -240 0 -240 0 0 -780 0 -780 -325 0
-325 0 -2 -380 -3 -380 -345 221 c-190 121 -349 226 -355 233 -5 7 -18 15 -28
19 -10 4 -292 183 -627 398 -425 273 -610 397 -610 410 0 12 -6 16 -19 12 -14
-3 -119 59 -343 203 -2850 1834 -3775 2427 -3785 2428 -7 0 -85 -77 -174 -173
-147 -160 -160 -176 -143 -188 107 -78 493 -391 494 -399 0 -7 9 -14 19 -17
29 -7 821 -638 821 -654 0 -7 8 -13 18 -13 26 0 876 -677 882 -703 4 -14 14
-22 28 -22 13 0 203 -144 489 -370 1612 -1276 1638 -1297 1643 -1324 4 -21 10
-25 30 -23 20 2 165 -109 695 -528 369 -293 739 -586 823 -652 83 -66 155
-124 158 -129 3 -5 -81 -9 -200 -9 l-206 0 2 -877 3 -878 367 -3 368 -2 2
-863 3 -862 648 -3 647 -2 0 865 0 865 650 0 650 0 2 -862 3 -863 650 0 650 0
3 863 2 862 650 0 650 0 0 -865 0 -865 650 0 650 0 0 865 0 865 650 0 650 0 2
-862 3 -863 648 -3 647 -2 0 865 0 865 370 0 370 0 0 880 0 880 -150 0 -150 0
0 174 0 175 335 265 c184 146 342 266 349 266 8 0 16 6 18 14 4 16 1085 876
1111 883 9 3 17 9 17 13 0 5 96 84 213 176 116 93 311 247 432 343 121 96 254
201 295 234 l75 59 5 -1049 5 -1048 22 -42 c37 -69 126 -119 190 -107 43 8
101 57 119 101 8 19 14 69 14 122 0 80 -2 92 -20 101 -14 8 -26 8 -40 0 -17
-9 -20 -21 -20 -91 0 -51 -5 -90 -15 -108 -26 -50 -74 -55 -125 -12 l-35 29
-3 1088 -2 1089 31 26 c38 31 39 29 -64 138 -44 47 -73 71 -83 67 -8 -3 -481
-306 -1052 -673 -570 -367 -1053 -676 -1072 -687 -20 -12 -87 -55 -150 -97
-63 -42 -212 -138 -330 -213 l-215 -137 -5 123 -5 123 -972 3 -973 2 0 345 0
345 -1043 0 -1043 0 -63 478 c-34 262 -65 496 -68 520 l-6 42 117 0 116 0 0
305 0 305 -155 0 c-152 0 -155 0 -160 23 -7 30 -295 2228 -295 2250 0 16 19
17 240 17 l240 0 0 285 0 285 -577 2 -578 3 -3 513 -2 512 -140 0 -140 0 -2
-512z m2 -1673 l0 -435 -365 0 c-201 0 -365 3 -365 8 -1 15 102 837 105 850 3
9 75 12 315 12 l310 0 0 -435z m690 427 c0 -4 25 -193 55 -421 30 -228 55
-420 55 -428 0 -10 -49 -13 -260 -13 l-260 0 0 435 0 435 205 0 c113 0 205 -3
205 -8z m-10853 -874 c6 -18 27 -77 47 -131 20 -54 30 -95 24 -91 -7 5 -52 39
-100 77 l-88 68 47 55 c26 30 50 54 53 54 4 0 11 -15 17 -32z m436 -183 c146
-93 266 -173 267 -177 0 -7 -130 -11 -352 -13 l-63 0 -38 105 c-22 58 -52 140
-67 183 -16 43 -26 77 -21 75 4 -2 128 -79 274 -173z m9350 -87 l372 -3 3
-310 2 -310 -182 -182 -183 -183 -264 0 -264 0 6 38 c3 20 34 264 69 542 35
284 64 484 66 458 l3 -48 372 -2z m996 -5 c-1 -5 -78 -82 -170 -173 l-169
-164 0 165 c0 91 3 169 7 172 9 10 333 9 332 0z m296 -558 c26 -203 49 -382
52 -397 l6 -28 -347 0 -346 0 0 117 0 118 287 287 c158 158 290 284 294 280 3
-4 27 -173 54 -377z m-10167 118 c27 -115 49 -209 48 -210 -1 -1 -116 89 -256
200 l-255 202 35 6 c19 4 112 7 206 8 l171 1 51 -207z m486 -87 c196 -126 355
-230 353 -232 -1 -1 -140 -4 -307 -5 l-305 -2 -52 209 c-69 276 -67 267 -55
263 5 -2 170 -107 366 -233z m466 -398 c0 -12 9 -120 21 -240 11 -121 19 -222
16 -224 -3 -3 -140 102 -306 233 l-300 238 52 6 c29 3 157 6 285 7 232 2 232
2 232 -20z m539 -248 c209 -135 381 -247 381 -251 0 -6 -719 -63 -724 -58 -2
2 -13 114 -25 249 -12 135 -25 260 -28 279 -3 20 -2 32 4 30 6 -2 182 -114
392 -249z m446 -402 c8 -20 103 -643 99 -647 -4 -5 -754 590 -754 598 0 4 143
18 318 33 174 14 321 26 325 27 4 0 10 -5 12 -11z m581 -259 c225 -144 415
-267 422 -273 10 -9 -71 -18 -350 -39 -200 -15 -375 -28 -389 -27 l-25 0 -43
283 c-23 155 -45 293 -48 306 -5 19 -3 23 9 18 9 -3 199 -123 424 -268z m5804
170 c0 -4 -11 -21 -25 -36 -23 -26 -24 -27 -25 -7 0 12 3 36 6 53 6 30 8 31
25 15 11 -9 19 -21 19 -25z m453 -524 l477 -370 0 -397 0 -398 -572 -2 c-315
-2 -582 -2 -593 0 -20 3 -18 21 77 780 53 427 97 778 97 780 1 5 20 -9 514
-393z m477 189 c0 -153 -3 -194 -12 -188 -18 11 -460 354 -478 370 -12 12 22
14 238 14 l252 0 0 -196z m1080 189 c0 -12 99 -764 105 -795 l5 -28 -120 0
-119 0 -3 -150 -3 -149 -332 257 -332 257 -1 308 0 307 400 0 c220 0 400 -3
400 -7z m7320 -123 c0 -10 -80 -73 -86 -68 -4 4 7 39 31 107 4 11 11 9 30 -9
14 -13 25 -26 25 -30z m-172 -66 l-33 -89 -40 -3 c-22 -1 -70 1 -107 5 l-66 8
136 87 c75 48 138 85 140 84 1 -2 -12 -43 -30 -92z m-123 -173 c-26 -25 -250
-198 -253 -196 -2 2 7 49 20 104 l23 101 110 0 c67 0 105 -4 100 -9z m-324
-146 c-16 -64 -31 -119 -34 -121 -3 -3 -74 -2 -157 3 l-152 8 183 117 c101 64
185 115 187 114 1 -2 -10 -56 -27 -121z m-13921 48 c0 -10 11 -202 25 -428 13
-225 22 -411 21 -412 -2 -2 -226 173 -499 389 -273 216 -492 395 -486 396 14
5 821 69 887 71 43 1 52 -2 52 -16z m695 -393 c451 -289 468 -301 462 -306 -9
-9 -952 -213 -957 -206 -6 6 -51 764 -50 835 l0 28 53 -34 c28 -18 250 -161
492 -317z m13110 141 c-35 -31 -307 -242 -310 -239 -2 1 2 58 8 126 l10 122
151 0 c85 0 146 -4 141 -9z m-370 -43 c-3 -24 -10 -87 -15 -142 -5 -54 -11
-100 -13 -102 -5 -6 -357 22 -363 29 -5 4 374 254 388 256 4 1 5 -18 3 -41z
m-6672 -477 c293 -228 327 -257 327 -283 0 -15 -3 -28 -7 -28 -5 0 -154 0
-333 -1 l-325 0 -3 286 c-1 158 1 285 6 283 4 -1 155 -117 335 -257z m6136 33
c-12 -82 -26 -153 -30 -158 -7 -8 -311 10 -363 23 -27 6 -15 16 190 148 120
78 220 140 222 138 2 -2 -7 -70 -19 -151z m296 136 c76 -6 141 -12 142 -14 2
-1 -84 -71 -189 -155 -106 -84 -194 -148 -196 -142 -3 9 31 246 44 308 3 18
10 22 32 18 15 -3 90 -9 167 -15z m-11955 -233 c0 -45 -52 -902 -55 -905 -4
-4 -878 685 -882 696 -2 4 201 53 450 108 422 95 487 108 487 101z m515 -238
l345 -222 0 -81 0 -81 -172 -44 c-94 -24 -264 -70 -377 -101 -113 -32 -208
-57 -210 -54 -2 2 6 178 18 391 12 214 21 396 21 407 0 12 5 16 15 12 9 -3
171 -105 360 -227z m10905 110 c91 -6 176 -14 189 -18 22 -6 -2 -28 -230 -208
-139 -111 -255 -200 -256 -199 -4 4 18 398 23 425 5 22 8 23 57 17 29 -3 126
-11 217 -17z m-354 -76 c-3 -32 -8 -116 -11 -188 -3 -71 -8 -146 -11 -166 l-5
-36 -177 39 c-97 21 -211 47 -252 56 l-74 17 259 167 c143 92 264 168 268 168
5 0 6 -26 3 -57z m-6168 -464 l-3 -130 -649 -250 c-357 -137 -652 -249 -656
-249 -4 0 76 681 90 758 0 1 275 2 610 2 l611 0 -3 -131z m661 127 c-2 -2 -80
-33 -174 -69 -93 -36 -178 -68 -187 -72 -16 -6 -18 0 -18 69 l0 76 192 0 c105
0 189 -2 187 -4z m4875 -211 c4 -93 9 -182 12 -197 5 -23 2 -28 -15 -28 -21 0
-21 4 -21 213 1 251 15 258 24 12z m324 143 c180 -40 230 -54 220 -63 -26 -23
-447 -355 -451 -355 -2 0 -7 66 -11 148 -3 81 -9 186 -13 235 -5 71 -3 87 8
87 8 0 119 -23 247 -52z m-4908 -448 l0 -320 -827 0 c-454 0 -824 2 -822 4 6
6 681 266 691 266 4 0 8 -56 8 -125 l0 -125 140 0 140 0 2 182 3 183 325 126
c179 70 328 127 333 128 4 1 7 -143 7 -319z m-5006 -432 c-16 -74 -19 -78 -44
-78 -36 0 -760 569 -738 580 14 8 593 167 718 198 l75 18 3 -320 c3 -275 1
-332 -14 -398z m9610 423 c17 -7 16 -9 -12 -30 l-32 -22 0 30 c0 32 9 36 44
22z"/>
<path d="M4232 1428 l3 -143 100 -7 c112 -8 245 -42 333 -87 31 -16 115 -63
186 -105 252 -148 422 -195 696 -196 277 0 466 55 726 211 248 149 373 184
634 176 227 -6 304 -29 516 -153 308 -180 440 -222 716 -231 302 -10 468 33
752 195 300 171 353 187 621 187 261 0 322 -18 581 -167 300 -173 451 -217
739 -218 264 0 454 52 685 189 146 86 292 156 375 178 101 26 419 26 520 -1
92 -24 201 -75 354 -166 273 -161 454 -208 766 -197 255 9 405 55 646 197 153
91 262 142 354 166 101 27 419 27 520 1 83 -22 229 -92 375 -178 234 -139 418
-189 687 -189 286 1 437 45 737 218 219 126 313 159 486 171 l95 6 3 144 3
143 -103 -7 c-218 -16 -377 -66 -575 -181 -302 -177 -399 -208 -648 -208 -249
0 -345 31 -648 208 -142 83 -254 128 -397 159 -77 17 -129 21 -275 20 -279 0
-437 -42 -672 -179 -303 -177 -399 -208 -648 -208 -249 0 -345 31 -648 208
-235 137 -393 179 -672 179 -146 1 -198 -3 -275 -20 -143 -31 -255 -76 -397
-159 -302 -177 -398 -207 -648 -208 -247 0 -335 27 -615 189 -231 134 -360
177 -583 197 -97 9 -158 9 -250 0 -224 -21 -365 -70 -596 -206 -259 -153 -350
-180 -601 -179 -252 0 -326 24 -620 194 -213 123 -346 169 -553 190 -196 20
-434 -7 -591 -66 -89 -33 -145 -62 -298 -152 -237 -139 -334 -167 -583 -166
-245 0 -338 30 -618 196 -135 79 -249 128 -363 156 -76 19 -240 41 -304 41
l-31 0 3 -142z"/>
<path d="M4110 541 l0 -140 58 -6 c224 -23 309 -51 498 -161 178 -104 251
-140 355 -174 242 -79 571 -79 819 1 76 25 226 98 322 157 109 67 221 120 300
142 110 30 268 42 399 30 165 -16 261 -50 478 -174 180 -103 267 -143 374
-172 94 -26 240 -44 354 -44 258 0 456 55 683 189 145 86 293 157 367 176 103
26 261 37 379 25 191 -18 263 -44 499 -184 277 -163 475 -215 775 -203 243 10
404 59 627 189 168 99 277 151 360 172 103 27 260 38 378 26 187 -17 265 -46
495 -180 155 -91 267 -141 378 -169 278 -70 597 -50 839 52 43 19 149 74 235
124 257 148 348 175 588 175 238 0 342 -30 587 -174 278 -164 460 -218 733
-218 268 0 458 55 715 206 243 144 305 165 548 190 l57 5 0 140 0 139 -48 0
c-71 0 -201 -18 -286 -40 -118 -30 -220 -75 -367 -160 -240 -141 -324 -172
-513 -191 -75 -7 -137 -7 -212 0 -191 19 -259 45 -513 191 -243 140 -392 186
-636 196 -155 7 -273 -4 -405 -37 -117 -30 -213 -72 -369 -164 -236 -137 -316
-167 -505 -186 -117 -12 -272 -1 -379 27 -76 19 -220 88 -389 187 -253 148
-536 204 -838 166 -190 -23 -326 -73 -540 -199 -231 -135 -308 -163 -499 -181
-120 -11 -269 0 -375 27 -76 19 -200 77 -311 144 -260 157 -469 220 -732 220
-249 0 -447 -51 -651 -168 -48 -28 -123 -71 -167 -96 -137 -79 -236 -110 -397
-127 -127 -12 -283 0 -397 31 -77 22 -189 75 -298 141 -271 166 -495 227 -788
216 -272 -10 -414 -58 -730 -242 -217 -126 -409 -170 -647 -145 -177 18 -282
56 -485 176 -124 73 -242 130 -329 157 -89 28 -262 57 -343 57 l-51 0 0 -139z"/>
</g>
</svg>
